<svg id="svg" version="1.1" xmlns="http://www.w3.org/2000/svg" xmlns:xlink="http://www.w3.org/1999/xlink" width="400" height="400" viewBox="0, 0, 400,400"><g id="svgg"><path id="path0" d="M138.850 122.300 C 138.014 122.998,138.012 123.076,137.906 154.258 C 137.804 184.355,137.772 185.548,137.038 186.358 L 136.276 187.200 105.120 187.200 L 73.964 187.200 72.982 188.182 L 72.000 189.164 72.009 200.082 C 72.017 210.227,72.072 211.071,72.786 212.000 L 73.554 213.000 105.143 213.118 C 133.586 213.224,136.785 213.300,137.266 213.879 C 137.699 214.401,137.822 220.435,137.916 245.814 C 138.031 276.844,138.039 277.111,138.857 277.852 C 140.312 279.170,160.857 279.221,162.800 277.912 L 164.200 276.968 164.400 246.184 C 164.607 214.335,164.622 214.061,166.222 213.447 C 166.576 213.311,180.273 213.200,196.659 213.200 C 216.201 213.200,226.716 213.059,227.217 212.791 C 229.089 211.789,228.865 209.217,226.651 206.294 C 226.112 205.582,225.379 203.987,225.022 202.749 C 224.664 201.511,224.014 200.175,223.577 199.779 C 223.139 199.383,222.511 198.130,222.181 196.994 C 221.851 195.859,221.150 194.346,220.624 193.632 C 220.097 192.918,219.272 191.362,218.789 190.174 C 217.540 187.096,218.558 187.205,190.989 187.202 C 164.288 187.200,165.609 187.337,164.818 184.488 C 164.550 183.526,164.404 172.440,164.402 153.094 L 164.400 123.188 163.100 122.396 C 161.218 121.248,140.210 121.165,138.850 122.300 M222.262 122.331 C 221.226 123.476,221.750 125.798,223.622 128.354 C 224.043 128.929,224.646 130.263,224.960 131.318 C 225.275 132.373,225.970 133.813,226.505 134.518 C 227.040 135.223,227.791 136.751,228.175 137.912 C 228.559 139.074,229.280 140.514,229.778 141.112 C 230.277 141.711,230.913 142.920,231.193 143.800 C 231.474 144.680,232.310 146.497,233.051 147.838 C 233.793 149.180,234.400 150.544,234.400 150.870 C 234.400 151.196,234.926 152.259,235.570 153.231 C 236.213 154.204,237.120 156.019,237.585 157.264 C 238.050 158.509,238.683 159.737,238.991 159.993 C 239.300 160.249,240.038 161.750,240.632 163.329 C 241.226 164.908,241.959 166.487,242.261 166.837 C 242.563 167.188,243.256 168.611,243.800 170.000 C 244.344 171.389,245.064 172.829,245.400 173.200 C 245.736 173.571,246.429 174.938,246.942 176.237 C 247.454 177.537,248.352 179.300,248.937 180.156 C 249.522 181.012,250.000 182.111,250.000 182.600 C 250.000 183.089,250.478 184.188,251.063 185.044 C 251.648 185.900,252.519 187.590,253.000 188.800 C 253.481 190.010,254.352 191.700,254.937 192.556 C 255.522 193.412,256.000 194.342,256.000 194.623 C 256.000 194.905,256.712 196.545,257.581 198.268 C 258.451 199.990,259.537 202.210,259.995 203.200 C 260.452 204.190,261.176 205.630,261.604 206.400 C 262.032 207.170,262.752 208.610,263.204 209.600 C 263.656 210.590,264.365 212.030,264.779 212.800 C 265.778 214.658,268.155 219.709,269.196 222.185 C 269.655 223.277,270.280 224.447,270.585 224.785 C 270.890 225.123,271.520 226.420,271.986 227.667 C 272.452 228.914,273.193 230.392,273.633 230.952 C 274.074 231.511,274.691 232.834,275.004 233.890 C 275.318 234.946,276.034 236.433,276.596 237.195 C 277.158 237.956,277.793 239.231,278.007 240.027 C 278.222 240.824,278.935 242.269,279.592 243.238 C 280.248 244.207,281.085 245.900,281.452 247.000 C 281.818 248.100,282.440 249.415,282.834 249.923 C 283.228 250.430,283.854 251.780,284.226 252.923 C 284.597 254.065,285.324 255.568,285.842 256.262 C 286.359 256.956,287.154 258.516,287.608 259.729 C 288.061 260.941,288.778 262.373,289.201 262.910 C 289.623 263.447,290.365 264.947,290.849 266.243 C 291.333 267.539,292.043 269.050,292.427 269.600 C 292.811 270.150,293.415 271.512,293.770 272.626 C 294.180 273.914,295.114 275.408,296.332 276.726 L 298.248 278.800 310.964 278.800 C 326.833 278.800,327.719 278.571,325.805 274.971 C 325.252 273.931,324.800 272.773,324.800 272.396 C 324.800 272.020,324.327 271.015,323.750 270.164 C 323.172 269.313,322.447 267.901,322.138 267.026 C 321.830 266.150,321.063 264.616,320.434 263.617 C 319.806 262.618,319.069 261.101,318.797 260.246 C 318.525 259.391,317.886 258.078,317.378 257.329 C 316.869 256.580,316.144 255.035,315.765 253.895 C 315.387 252.756,314.590 251.152,313.996 250.331 C 313.401 249.510,312.688 248.029,312.411 247.039 C 312.134 246.050,311.576 244.940,311.171 244.574 C 310.766 244.207,309.952 242.623,309.361 241.054 C 308.771 239.484,308.058 237.930,307.777 237.600 C 307.497 237.270,306.900 236.032,306.452 234.849 C 306.005 233.666,305.199 232.046,304.663 231.249 C 304.126 230.452,303.390 228.876,303.027 227.747 C 302.664 226.618,302.010 225.371,301.574 224.977 C 301.138 224.582,300.490 223.256,300.134 222.030 C 299.778 220.803,299.059 219.240,298.538 218.555 C 298.016 217.870,297.297 216.430,296.940 215.355 C 296.584 214.280,295.969 213.040,295.575 212.600 C 295.181 212.160,294.478 210.780,294.013 209.533 C 293.548 208.286,292.843 206.846,292.446 206.333 C 292.049 205.820,291.351 204.283,290.894 202.918 C 290.438 201.553,289.695 200.039,289.244 199.555 C 288.793 199.071,288.050 197.553,287.595 196.184 C 287.139 194.814,286.421 193.381,285.999 192.999 C 285.578 192.618,284.928 191.382,284.554 190.253 C 284.181 189.124,283.488 187.570,283.015 186.800 C 282.541 186.030,281.825 184.500,281.424 183.400 C 281.022 182.300,280.360 181.031,279.953 180.581 C 279.546 180.130,278.855 178.723,278.418 177.453 C 277.981 176.183,277.198 174.638,276.678 174.020 C 276.158 173.402,275.431 171.820,275.062 170.506 C 274.693 169.191,274.041 167.799,273.612 167.411 C 273.184 167.023,272.530 165.782,272.160 164.653 C 271.790 163.524,271.179 162.150,270.801 161.600 C 269.958 160.370,266.200 152.573,265.789 151.200 C 265.625 150.650,265.001 149.480,264.404 148.600 C 263.806 147.720,263.010 146.066,262.635 144.925 C 262.259 143.784,261.423 142.184,260.776 141.370 C 260.129 140.556,259.600 139.570,259.600 139.178 C 259.600 138.787,258.947 137.236,258.148 135.733 C 257.350 134.230,256.457 132.322,256.164 131.494 C 255.871 130.665,255.192 129.405,254.654 128.694 C 254.117 127.982,253.465 126.679,253.205 125.797 C 251.977 121.640,251.815 121.600,236.082 121.600 C 223.843 121.600,222.878 121.651,222.262 122.331 " stroke="none" fill="#f7f8fc" fill-rule="evenodd"></path><path id="path1" d="M0.000 200.000 L 0.000 400.000 200.000 400.000 L 400.000 400.000 400.000 200.000 L 400.000 0.000 200.000 0.000 L 0.000 0.000 0.000 200.000 M163.100 122.396 L 164.400 123.188 164.402 153.094 C 164.404 172.440,164.550 183.526,164.818 184.488 C 165.609 187.337,164.288 187.200,190.989 187.202 C 218.558 187.205,217.540 187.096,218.789 190.174 C 219.272 191.362,220.097 192.918,220.624 193.632 C 221.150 194.346,221.851 195.859,222.181 196.994 C 222.511 198.130,223.139 199.383,223.577 199.779 C 224.014 200.175,224.664 201.511,225.022 202.749 C 225.379 203.987,226.112 205.582,226.651 206.294 C 228.865 209.217,229.089 211.789,227.217 212.791 C 226.716 213.059,216.201 213.200,196.659 213.200 C 180.273 213.200,166.576 213.311,166.222 213.447 C 164.622 214.061,164.607 214.335,164.400 246.184 L 164.200 276.968 162.800 277.912 C 160.857 279.221,140.312 279.170,138.857 277.852 C 138.039 277.111,138.031 276.844,137.916 245.814 C 137.822 220.435,137.699 214.401,137.266 213.879 C 136.785 213.300,133.586 213.224,105.143 213.118 L 73.554 213.000 72.786 212.000 C 72.072 211.071,72.017 210.227,72.009 200.082 L 72.000 189.164 72.982 188.182 L 73.964 187.200 105.120 187.200 L 136.276 187.200 137.038 186.358 C 137.772 185.548,137.804 184.355,137.906 154.258 C 138.012 123.076,138.014 122.998,138.850 122.300 C 140.210 121.165,161.218 121.248,163.100 122.396 M250.520 122.261 C 252.093 123.074,252.597 123.738,253.205 125.797 C 253.465 126.679,254.117 127.982,254.654 128.694 C 255.192 129.405,255.871 130.665,256.164 131.494 C 256.457 132.322,257.350 134.230,258.148 135.733 C 258.947 137.236,259.600 138.787,259.600 139.178 C 259.600 139.570,260.129 140.556,260.776 141.370 C 261.423 142.184,262.259 143.784,262.635 144.925 C 263.010 146.066,263.806 147.720,264.404 148.600 C 265.001 149.480,265.625 150.650,265.789 151.200 C 266.200 152.573,269.958 160.370,270.801 161.600 C 271.179 162.150,271.790 163.524,272.160 164.653 C 272.530 165.782,273.184 167.023,273.612 167.411 C 274.041 167.799,274.693 169.191,275.062 170.506 C 275.431 171.820,276.158 173.402,276.678 174.020 C 277.198 174.638,277.981 176.183,278.418 177.453 C 278.855 178.723,279.546 180.130,279.953 180.581 C 280.360 181.031,281.022 182.300,281.424 183.400 C 281.825 184.500,282.541 186.030,283.015 186.800 C 283.488 187.570,284.181 189.124,284.554 190.253 C 284.928 191.382,285.578 192.618,285.999 192.999 C 286.421 193.381,287.139 194.814,287.595 196.184 C 288.050 197.553,288.793 199.071,289.244 199.555 C 289.695 200.039,290.438 201.553,290.894 202.918 C 291.351 204.283,292.049 205.820,292.446 206.333 C 292.843 206.846,293.548 208.286,294.013 209.533 C 294.478 210.780,295.181 212.160,295.575 212.600 C 295.969 213.040,296.584 214.280,296.940 215.355 C 297.297 216.430,298.016 217.870,298.538 218.555 C 299.059 219.240,299.778 220.803,300.134 222.030 C 300.490 223.256,301.138 224.582,301.574 224.977 C 302.010 225.371,302.664 226.618,303.027 227.747 C 303.390 228.876,304.126 230.452,304.663 231.249 C 305.199 232.046,306.005 233.666,306.452 234.849 C 306.900 236.032,307.497 237.270,307.777 237.600 C 308.058 237.930,308.771 239.484,309.361 241.054 C 309.952 242.623,310.766 244.207,311.171 244.574 C 311.576 244.940,312.134 246.050,312.411 247.039 C 312.688 248.029,313.401 249.510,313.996 250.331 C 314.590 251.152,315.387 252.756,315.765 253.895 C 316.144 255.035,316.869 256.580,317.378 257.329 C 317.886 258.078,318.525 259.391,318.797 260.246 C 319.069 261.101,319.806 262.618,320.434 263.617 C 321.063 264.616,321.830 266.150,322.138 267.026 C 322.447 267.901,323.172 269.313,323.750 270.164 C 324.327 271.015,324.800 272.020,324.800 272.396 C 324.800 272.773,325.252 273.931,325.805 274.971 C 327.719 278.571,326.833 278.800,310.964 278.800 L 298.248 278.800 296.332 276.726 C 295.114 275.408,294.180 273.914,293.770 272.626 C 293.415 271.512,292.811 270.150,292.427 269.600 C 292.043 269.050,291.333 267.539,290.849 266.243 C 290.365 264.947,289.623 263.447,289.201 262.910 C 288.778 262.373,288.061 260.941,287.608 259.729 C 287.154 258.516,286.359 256.956,285.842 256.262 C 285.324 255.568,284.597 254.065,284.226 252.923 C 283.854 251.780,283.228 250.430,282.834 249.923 C 282.440 249.415,281.818 248.100,281.452 247.000 C 281.085 245.900,280.248 244.207,279.592 243.238 C 278.935 242.269,278.222 240.824,278.007 240.027 C 277.793 239.231,277.158 237.956,276.596 237.195 C 276.034 236.433,275.318 234.946,275.004 233.890 C 274.691 232.834,274.074 231.511,273.633 230.952 C 273.193 230.392,272.452 228.914,271.986 227.667 C 271.520 226.420,270.890 225.123,270.585 224.785 C 270.280 224.447,269.655 223.277,269.196 222.185 C 268.155 219.709,265.778 214.658,264.779 212.800 C 264.365 212.030,263.656 210.590,263.204 209.600 C 262.752 208.610,262.032 207.170,261.604 206.400 C 261.176 205.630,260.452 204.190,259.995 203.200 C 259.537 202.210,258.451 199.990,257.581 198.268 C 256.712 196.545,256.000 194.905,256.000 194.623 C 256.000 194.342,255.522 193.412,254.937 192.556 C 254.352 191.700,253.481 190.010,253.000 188.800 C 252.519 187.590,251.648 185.900,251.063 185.044 C 250.478 184.188,250.000 183.089,250.000 182.600 C 250.000 182.111,249.522 181.012,248.937 180.156 C 248.352 179.300,247.454 177.537,246.942 176.237 C 246.429 174.938,245.736 173.571,245.400 173.200 C 245.064 172.829,244.344 171.389,243.800 170.000 C 243.256 168.611,242.563 167.188,242.261 166.837 C 241.959 166.487,241.226 164.908,240.632 163.329 C 240.038 161.750,239.300 160.249,238.991 159.993 C 238.683 159.737,238.050 158.509,237.585 157.264 C 237.120 156.019,236.213 154.204,235.570 153.231 C 234.926 152.259,234.400 151.196,234.400 150.870 C 234.400 150.544,233.793 149.180,233.051 147.838 C 232.310 146.497,231.474 144.680,231.193 143.800 C 230.913 142.920,230.277 141.711,229.778 141.112 C 229.280 140.514,228.559 139.074,228.175 137.912 C 227.791 136.751,227.040 135.223,226.505 134.518 C 225.970 133.813,225.275 132.373,224.960 131.318 C 224.646 130.263,224.043 128.929,223.622 128.354 C 221.750 125.798,221.226 123.476,222.262 122.331 C 223.226 121.267,248.474 121.204,250.520 122.261 " stroke="none" fill="#1661ee" fill-rule="evenodd"></path><path id="path2" d="M0.000 200.000 L 0.000 400.000 200.000 400.000 L 400.000 400.000 400.000 200.000 L 400.000 0.000 200.000 0.000 L 0.000 0.000 0.000 200.000 M163.100 122.396 L 164.400 123.188 164.402 153.094 C 164.404 172.440,164.550 183.526,164.818 184.488 C 165.609 187.337,164.288 187.200,190.989 187.202 C 218.558 187.205,217.540 187.096,218.789 190.174 C 219.272 191.362,220.097 192.918,220.624 193.632 C 221.150 194.346,221.851 195.859,222.181 196.994 C 222.511 198.130,223.139 199.383,223.577 199.779 C 224.014 200.175,224.664 201.511,225.022 202.749 C 225.379 203.987,226.112 205.582,226.651 206.294 C 228.865 209.217,229.089 211.789,227.217 212.791 C 226.716 213.059,216.201 213.200,196.659 213.200 C 180.273 213.200,166.576 213.311,166.222 213.447 C 164.622 214.061,164.607 214.335,164.400 246.184 L 164.200 276.968 162.800 277.912 C 160.857 279.221,140.312 279.170,138.857 277.852 C 138.039 277.111,138.031 276.844,137.916 245.814 C 137.822 220.435,137.699 214.401,137.266 213.879 C 136.785 213.300,133.586 213.224,105.143 213.118 L 73.554 213.000 72.786 212.000 C 72.072 211.071,72.017 210.227,72.009 200.082 L 72.000 189.164 72.982 188.182 L 73.964 187.200 105.120 187.200 L 136.276 187.200 137.038 186.358 C 137.772 185.548,137.804 184.355,137.906 154.258 C 138.012 123.076,138.014 122.998,138.850 122.300 C 140.210 121.165,161.218 121.248,163.100 122.396 M250.520 122.261 C 252.093 123.074,252.597 123.738,253.205 125.797 C 253.465 126.679,254.117 127.982,254.654 128.694 C 255.192 129.405,255.871 130.665,256.164 131.494 C 256.457 132.322,257.350 134.230,258.148 135.733 C 258.947 137.236,259.600 138.787,259.600 139.178 C 259.600 139.570,260.129 140.556,260.776 141.370 C 261.423 142.184,262.259 143.784,262.635 144.925 C 263.010 146.066,263.806 147.720,264.404 148.600 C 265.001 149.480,265.625 150.650,265.789 151.200 C 266.200 152.573,269.958 160.370,270.801 161.600 C 271.179 162.150,271.790 163.524,272.160 164.653 C 272.530 165.782,273.184 167.023,273.612 167.411 C 274.041 167.799,274.693 169.191,275.062 170.506 C 275.431 171.820,276.158 173.402,276.678 174.020 C 277.198 174.638,277.981 176.183,278.418 177.453 C 278.855 178.723,279.546 180.130,279.953 180.581 C 280.360 181.031,281.022 182.300,281.424 183.400 C 281.825 184.500,282.541 186.030,283.015 186.800 C 283.488 187.570,284.181 189.124,284.554 190.253 C 284.928 191.382,285.578 192.618,285.999 192.999 C 286.421 193.381,287.139 194.814,287.595 196.184 C 288.050 197.553,288.793 199.071,289.244 199.555 C 289.695 200.039,290.438 201.553,290.894 202.918 C 291.351 204.283,292.049 205.820,292.446 206.333 C 292.843 206.846,293.548 208.286,294.013 209.533 C 294.478 210.780,295.181 212.160,295.575 212.600 C 295.969 213.040,296.584 214.280,296.940 215.355 C 297.297 216.430,298.016 217.870,298.538 218.555 C 299.059 219.240,299.778 220.803,300.134 222.030 C 300.490 223.256,301.138 224.582,301.574 224.977 C 302.010 225.371,302.664 226.618,303.027 227.747 C 303.390 228.876,304.126 230.452,304.663 231.249 C 305.199 232.046,306.005 233.666,306.452 234.849 C 306.900 236.032,307.497 237.270,307.777 237.600 C 308.058 237.930,308.771 239.484,309.361 241.054 C 309.952 242.623,310.766 244.207,311.171 244.574 C 311.576 244.940,312.134 246.050,312.411 247.039 C 312.688 248.029,313.401 249.510,313.996 250.331 C 314.590 251.152,315.387 252.756,315.765 253.895 C 316.144 255.035,316.869 256.580,317.378 257.329 C 317.886 258.078,318.525 259.391,318.797 260.246 C 319.069 261.101,319.806 262.618,320.434 263.617 C 321.063 264.616,321.830 266.150,322.138 267.026 C 322.447 267.901,323.172 269.313,323.750 270.164 C 324.327 271.015,324.800 272.020,324.800 272.396 C 324.800 272.773,325.252 273.931,325.805 274.971 C 327.719 278.571,326.833 278.800,310.964 278.800 L 298.248 278.800 296.332 276.726 C 295.114 275.408,294.180 273.914,293.770 272.626 C 293.415 271.512,292.811 270.150,292.427 269.600 C 292.043 269.050,291.333 267.539,290.849 266.243 C 290.365 264.947,289.623 263.447,289.201 262.910 C 288.778 262.373,288.061 260.941,287.608 259.729 C 287.154 258.516,286.359 256.956,285.842 256.262 C 285.324 255.568,284.597 254.065,284.226 252.923 C 283.854 251.780,283.228 250.430,282.834 249.923 C 282.440 249.415,281.818 248.100,281.452 247.000 C 281.085 245.900,280.248 244.207,279.592 243.238 C 278.935 242.269,278.222 240.824,278.007 240.027 C 277.793 239.231,277.158 237.956,276.596 237.195 C 276.034 236.433,275.318 234.946,275.004 233.890 C 274.691 232.834,274.074 231.511,273.633 230.952 C 273.193 230.392,272.452 228.914,271.986 227.667 C 271.520 226.420,270.890 225.123,270.585 224.785 C 270.280 224.447,269.655 223.277,269.196 222.185 C 268.155 219.709,265.778 214.658,264.779 212.800 C 264.365 212.030,263.656 210.590,263.204 209.600 C 262.752 208.610,262.032 207.170,261.604 206.400 C 261.176 205.630,260.452 204.190,259.995 203.200 C 259.537 202.210,258.451 199.990,257.581 198.268 C 256.712 196.545,256.000 194.905,256.000 194.623 C 256.000 194.342,255.522 193.412,254.937 192.556 C 254.352 191.700,253.481 190.010,253.000 188.800 C 252.519 187.590,251.648 185.900,251.063 185.044 C 250.478 184.188,250.000 183.089,250.000 182.600 C 250.000 182.111,249.522 181.012,248.937 180.156 C 248.352 179.300,247.454 177.537,246.942 176.237 C 246.429 174.938,245.736 173.571,245.400 173.200 C 245.064 172.829,244.344 171.389,243.800 170.000 C 243.256 168.611,242.563 167.188,242.261 166.837 C 241.959 166.487,241.226 164.908,240.632 163.329 C 240.038 161.750,239.300 160.249,238.991 159.993 C 238.683 159.737,238.050 158.509,237.585 157.264 C 237.120 156.019,236.213 154.204,235.570 153.231 C 234.926 152.259,234.400 151.196,234.400 150.870 C 234.400 150.544,233.793 149.180,233.051 147.838 C 232.310 146.497,231.474 144.680,231.193 143.800 C 230.913 142.920,230.277 141.711,229.778 141.112 C 229.280 140.514,228.559 139.074,228.175 137.912 C 227.791 136.751,227.040 135.223,226.505 134.518 C 225.970 133.813,225.275 132.373,224.960 131.318 C 224.646 130.263,224.043 128.929,223.622 128.354 C 221.750 125.798,221.226 123.476,222.262 122.331 C 223.226 121.267,248.474 121.204,250.520 122.261 " stroke="none" fill="#1661ee" fill-rule="evenodd"></path></g></svg>